<?xml version="1.0" encoding="utf-8"?>
<!-- Generator: Adobe Illustrator 24.3.0, SVG Export Plug-In . SVG Version: 6.00 Build 0)  -->
<svg version="1.1" id="Layer_1" xmlns="http://www.w3.org/2000/svg" xmlns:xlink="http://www.w3.org/1999/xlink" x="0px" y="0px"
	 viewBox="0 0 211.8 44.8" style="enable-background:new 0 0 211.8 44.8;" xml:space="preserve">
<style type="text/css">
	.st0{fill:#FF9C0B;}
	.st1{fill:#102967;}
</style>
<g>
	<path class="st0" d="M143.1,30.9c-5.7,5.6-14.8,5.5-20.4-0.1c-5.6-5.7-5.5-14.8,0.1-20.4c5.7-5.6,14.8-5.5,20.4,0.1
		c0.1,0.1,0.2,0.2,0.3,0.3l0.2,0.2l3.8-3.5l-0.2-0.2c-7.4-7.9-19.7-8.3-27.6-0.9c-1.4,1.3-2.7,2.9-3.6,4.6c-1.5-2.6-3.6-4.8-6-6.5
		l-2.9,4.3c0,0,5.8,4,6.3,11.2c0,0.2,0,0.5,0,0.7c0,10.8,8.8,19.6,19.6,19.6c5.1,0,10.1-2,13.7-5.6l0.2-0.2l-3.6-3.7L143.1,30.9z"/>
	<circle class="st0" cx="142.5" cy="42.2" r="2.6"/>
	<circle class="st0" cx="122.9" cy="42.2" r="2.6"/>
	<path class="st1" d="M133.1,10.1c2.5-0.1,4.9,0.7,6.8,2.3l-1.8,3.8c-1.3-1.3-3.1-2-5-2c-3.7-0.1-6.7,2.8-6.9,6.4
		c0.1,3.7,3.2,6.6,6.9,6.5c1.9,0,3.7-0.8,5-2.1l1.8,3.8c-1.9,1.6-4.3,2.4-6.8,2.3c-6.8,0-10.9-4.7-10.9-10.5S126.3,10.1,133.1,10.1z
		"/>
	<path class="st1" d="M35.5,22v13.5h-4.9V22c0-3.9-1.3-6.2-4.6-6.2c-2.9,0-5.9,2.3-5.9,6.5v13.3h-4.8V22c0-3.9-1.3-6.2-4.6-6.2
		c-2.9,0-5.8,2.3-5.8,6.5v13.3H0V11.3h4.9v2.8c1.6-2.1,4.1-3.4,6.8-3.2c2.9-0.2,5.6,1.3,7,3.8c2.6-2.8,4.9-3.8,8.4-3.8
		C32.3,10.9,35.5,14.8,35.5,22z"/>
	<path class="st1" d="M94.6,0v35.5h-4.8V32c-1.9,2.5-4.9,4-8.1,3.9c-7.1,0-12.1-5.6-12.1-12.5s5-12.5,12.1-12.5
		c3.2-0.1,6.2,1.4,8.1,3.9V0H94.6z M89.8,23.4c0-4.2-3.4-7.7-7.7-7.7c-4.2,0-7.7,3.4-7.7,7.7c0,4.2,3.4,7.7,7.7,7.7l0,0
		C86.3,31.1,89.8,27.7,89.8,23.4C89.8,23.4,89.8,23.4,89.8,23.4z"/>
	<path class="st0" d="M100.6,3.6c0-1.8,1.5-3.3,3.3-3.3c1.8,0,3.3,1.5,3.3,3.3c0,1.8-1.5,3.3-3.3,3.3c0,0,0,0,0,0
		C102.1,6.9,100.6,5.4,100.6,3.6C100.6,3.6,100.6,3.6,100.6,3.6z"/>
	<rect x="101.5" y="11.3" class="st1" width="4.8" height="24.2"/>
	<path class="st1" d="M173,11.3v24.2h-4.8V32c-1.9,2.5-4.9,4-8.1,3.9c-7.1,0-12.1-5.6-12.1-12.5s5-12.5,12.1-12.5
		c3.2-0.1,6.2,1.4,8.1,3.9v-3.5H173z M168.2,23.4c0-4.2-3.4-7.7-7.7-7.7c-4.2,0-7.7,3.4-7.7,7.7s3.4,7.7,7.7,7.7l0,0
		C164.8,31.1,168.2,27.7,168.2,23.4C168.2,23.4,168.2,23.4,168.2,23.4z"/>
	<path class="st1" d="M194.4,10.9v5.3c-1.5-0.4-3-0.3-4.4,0.2c-3.2,1.2-5.2,3.9-5.2,8.3v10.8h-4.8V11.3h4.8v5.2
		C186.4,13,189.9,10.9,194.4,10.9z"/>
	<path class="st1" d="M202.1,16.1h-3.2v-4.8h3.2V1.6h4.8v9.7h4.8v4.8h-4.8v10.1c0,1.7,0,3.5,1,4.2c1.2,0.9,2.8,0.5,3.9-0.1v4.9
		c-1.1,0.5-2.3,0.7-3.6,0.7c-4.6,0-6.1-3.7-6.1-8.3V16.1z"/>
	<path class="st1" d="M64.1,25.6H45.8c0.8,3.8,4,5.5,7.9,5.5c2.6,0,5.2-0.9,7.4-2.4l1.6,4.3c-2.6,2-5.8,3-9.1,2.9
		c-8.5,0-12.7-5.7-12.7-12.5s4.6-12.5,12-12.5c6.4,0,11.3,4.7,11.3,12.6C64.2,24.2,64.2,24.9,64.1,25.6z M59.3,21.2
		c-0.1-2.4-2-5.4-6.6-5.4c-4.4,0-6.8,3.1-6.9,5.4H59.3z"/>
	<path d="M148.9,44.4c0,0.2-0.2,0.4-0.4,0.4c-0.2,0-0.4-0.2-0.4-0.4s0.2-0.4,0.4-0.4C148.7,44,148.9,44.2,148.9,44.4z"/>
	<path d="M152,37.1v3.3c0.4-0.7,1.1-1.1,1.9-1.1c1.2-0.1,2.2,0.8,2.3,2c0,0.1,0,0.3,0,0.4v3.1h-0.5v-3.1c0-1.1-0.5-1.9-1.7-1.9
		c-1,0-1.9,0.8-1.9,1.9c0,0,0,0.1,0,0.1v3h-0.5v-7.7H152z"/>
	<path d="M163.4,42c0-1.5,1.1-2.7,2.6-2.8c0,0,0.1,0,0.1,0c1.4-0.1,2.6,0.9,2.7,2.3c0,0.2,0,0.5,0,0.7h-4.9c0.1,1.2,1,2,2.2,2
		c0.7,0,1.4-0.3,1.9-0.8l0.4,0.3c-0.6,0.7-1.4,1-2.3,1c-1.5,0-2.7-1.1-2.7-2.6C163.3,42.1,163.3,42,163.4,42z M168.3,41.8
		c0-1.1-0.8-2-1.9-2.1c-0.1,0-0.2,0-0.3,0c-1.2,0-2.2,0.9-2.2,2.1L168.3,41.8z"/>
	<path d="M181.4,39.3v5.4h-0.5v-1.1c-0.5,0.8-1.3,1.2-2.2,1.2c-1.5-0.1-2.7-1.4-2.6-2.9c0.1-1.4,1.2-2.5,2.6-2.6
		c0.9,0,1.8,0.5,2.2,1.2v-1.2H181.4z M176.5,42c0,1.2,0.9,2.2,2.1,2.3c0,0,0.1,0,0.1,0c1.2,0.1,2.3-0.9,2.4-2.1
		c0.1-1.2-0.9-2.3-2.1-2.4c-0.1,0-0.2,0-0.3,0c-1.2,0-2.2,0.9-2.2,2.1C176.5,41.9,176.5,41.9,176.5,42z"/>
	<path d="M189.1,37.1v7.7h-0.5v-7.7H189.1z"/>
	<path d="M197.9,37.7v1.6h1.8v0.5h-1.8V43c0,0.7,0.1,1.2,1,1.2c0.3,0,0.6-0.1,0.8-0.2l0.2,0.4c-0.3,0.2-0.7,0.3-1,0.3
		c-1.1,0-1.5-0.7-1.5-1.7v-3.3h-1.1v-0.4h1.1v-1.6L197.9,37.7z"/>
	<path d="M207.6,37.1v3.3c0.7-1.1,2.1-1.4,3.1-0.7c0.7,0.4,1.1,1.2,1.1,2v3.1h-0.5v-3.1c0-1.1-0.5-1.9-1.7-1.9c-1,0-1.9,0.8-1.9,1.9
		c0,0,0,0.1,0,0.1v3H207v-7.7H207.6z"/>
</g>
</svg>
