<svg id="Layer_1" data-name="Layer 1" xmlns="http://www.w3.org/2000/svg" viewBox="0 0 218 60"><defs><style>.cls-1{fill:#ff9c0b;}.cls-2{fill:#102967;}</style></defs><path class="cls-1" d="M146.19,38.49a14.41,14.41,0,1,1,.39-20.09l.24.25,3.76-3.52-.24-.25a19.53,19.53,0,0,0-31.25,3.67,21.78,21.78,0,0,0-6-6.55l-2.86,4.28s5.84,4,6.26,11.23c0,.24,0,.49,0,.73a19.56,19.56,0,0,0,33.3,13.92l.25-.25-3.62-3.66Z"/><circle class="cls-1" cx="145.6" cy="49.81" r="2.59"/><circle class="cls-1" cx="125.99" cy="49.81" r="2.59"/><path class="cls-2" d="M136.21,17.7A10.19,10.19,0,0,1,143,20l-1.75,3.78a7.25,7.25,0,0,0-5-2,6.68,6.68,0,0,0-6.85,6.42,6.69,6.69,0,0,0,6.85,6.5,7.11,7.11,0,0,0,5-2.08L143,36.44a10.34,10.34,0,0,1-6.81,2.34c-6.84,0-10.88-4.72-10.88-10.54S129.46,17.7,136.21,17.7Z"/><path class="cls-2" d="M38.63,29.59V43.11H33.78V29.59c0-3.88-1.31-6.25-4.64-6.25-2.92,0-5.85,2.32-5.85,6.45V43.11H18.45V29.59c0-3.88-1.31-6.25-4.64-6.25C10.89,23.34,8,25.66,8,29.79V43.11H3.12V18.9H8v2.82a7.88,7.88,0,0,1,6.76-3.22,7.54,7.54,0,0,1,7,3.83c2.57-2.78,4.94-3.83,8.37-3.83C35.4,18.5,38.63,22.43,38.63,29.59Z"/><path class="cls-2" d="M97.74,7.6V43.11H92.9V39.58a9.87,9.87,0,0,1-8.07,3.93c-7.07,0-12.11-5.6-12.11-12.51s5-12.5,12.11-12.5a9.87,9.87,0,0,1,8.07,3.93V7.6ZM92.9,31a7.67,7.67,0,1,0-7.67,7.67A7.66,7.66,0,0,0,92.9,31Z"/><path class="cls-1" d="M103.76,11.23A3.26,3.26,0,1,1,107,14.49,3.24,3.24,0,0,1,103.76,11.23Z"/><rect class="cls-2" x="104.6" y="18.9" width="4.84" height="24.21"/><path class="cls-2" d="M176.15,18.9V43.11h-4.84V39.58a9.87,9.87,0,0,1-8.07,3.93c-7.07,0-12.11-5.6-12.11-12.51s5-12.5,12.11-12.5a9.87,9.87,0,0,1,8.07,3.93V18.9ZM171.31,31a7.67,7.67,0,1,0-7.67,7.67A7.66,7.66,0,0,0,171.31,31Z"/><path class="cls-2" d="M197.53,18.5v5.29a7.59,7.59,0,0,0-4.44.2c-3.17,1.21-5.24,3.89-5.24,8.33V43.11H183V18.9h4.84v5.19C189.51,20.61,193,18.5,197.53,18.5Z"/><path class="cls-2" d="M205.2,23.74H202V18.9h3.23V9.21H210V18.9h4.84v4.84H210V33.83c0,1.71,0,3.48,1,4.18,1.16.86,2.77.46,3.88-.1v4.9a8.18,8.18,0,0,1-3.58.7c-4.59,0-6.1-3.68-6.1-8.32Z"/><path class="cls-2" d="M67.22,33.22H48.91c.76,3.79,4,5.45,7.87,5.45a12.87,12.87,0,0,0,7.37-2.42l1.61,4.34a14.42,14.42,0,0,1-9.08,2.92C48.21,43.51,44,37.81,44,31S48.61,18.5,56,18.5c6.4,0,11.34,4.74,11.34,12.6A16.73,16.73,0,0,1,67.22,33.22Zm-4.79-4.44c-.1-2.37-2-5.44-6.61-5.44-4.43,0-6.8,3.07-6.91,5.44Z"/><path d="M152,52a.43.43,0,0,1-.86,0A.43.43,0,0,1,152,52Z"/><path d="M155.12,44.72V48a2.15,2.15,0,0,1,1.95-1.08,2.13,2.13,0,0,1,2.26,2.38v3.09h-.52V49.28c0-1.11-.53-1.87-1.74-1.87a1.9,1.9,0,0,0-1.92,2v3h-.54V44.72Z"/><path d="M166.47,49.6a2.71,2.71,0,0,1,2.74-2.79,2.52,2.52,0,0,1,2.67,3H167a2.12,2.12,0,0,0,2.19,2,2.58,2.58,0,0,0,1.95-.82l.38.3a3,3,0,0,1-2.33,1A2.64,2.64,0,0,1,166.47,49.6Zm4.93-.22a2,2,0,0,0-2.19-2.08A2.16,2.16,0,0,0,167,49.38Z"/><path d="M184.52,46.89v5.39H184V51.14a2.51,2.51,0,0,1-2.21,1.23,2.78,2.78,0,0,1,0-5.55A2.46,2.46,0,0,1,184,48.07V46.89Zm-4.94,2.7a2.17,2.17,0,0,0,2.2,2.26,2.26,2.26,0,1,0,0-4.51A2.15,2.15,0,0,0,179.58,49.59Z"/><path d="M192.2,44.72v7.65h-.54V44.72Z"/><path d="M201,45.27V46.9h1.84v.45H201v3.28c0,.74.15,1.25,1,1.25a2.06,2.06,0,0,0,.83-.22l.18.44a2.42,2.42,0,0,1-1,.27c-1.15,0-1.52-.68-1.52-1.74V47.35h-1.15V46.9h1.15V45.32Z"/><path d="M210.68,44.72V48a2.27,2.27,0,0,1,4.2,1.3v3.09h-.52V49.28c0-1.11-.53-1.87-1.74-1.87a1.9,1.9,0,0,0-1.92,2v3h-.54V44.72Z"/></svg>